<svg width="1660" height="1412" viewBox="0 0 1660 1412" fill="none" xmlns="http://www.w3.org/2000/svg">
<path d="M1358.71 3C1358.71 3 1205.58 35.4304 1199.27 122.074C1192.97 208.717 1430.87 139.26 1335.63 320.074C1240.39 500.887 1154.31 505.363 1199.27 618.074C1244.23 730.785 1364.96 789.953 1505.21 745.2C1645.46 700.446 1658.66 413.074 1658.66 413.074" stroke="#D0D5F6" stroke-width="2"/>
<path d="M1400.7 3C1400.7 3 1280.58 31.4814 1275.63 107.575C1270.68 183.668 1457.31 122.669 1382.59 281.465C1307.88 440.262 1240.36 444.192 1275.63 543.179C1310.9 642.165 1405.6 694.129 1515.62 654.825C1625.64 615.521 1636 363.141 1636 363.141" stroke="#D0D5F6" stroke-width="2"/>
<path d="M1436.93 1C1436.93 1 1346.03 25.841 1342.29 92.2081C1338.54 158.575 1479.77 105.373 1423.23 243.872C1366.69 382.371 1315.6 385.799 1342.29 472.133C1368.98 558.468 1440.64 603.789 1523.9 569.509C1607.16 535.229 1615 315.108 1615 315.108" stroke="#D0D5F6" stroke-width="2"/>
<path d="M301.29 1409C301.29 1409 454.42 1376.57 460.727 1289.93C467.034 1203.28 229.129 1272.74 324.369 1091.93C419.61 911.113 505.687 906.637 460.727 793.926C415.767 681.215 295.04 622.047 154.79 666.8C14.5387 711.554 1.33655 998.926 1.33655 998.926" stroke="#D0D5F6" stroke-width="2"/>
<path d="M259.3 1409C259.3 1409 379.425 1380.52 384.372 1304.43C389.32 1228.33 202.693 1289.33 277.406 1130.53C352.118 971.738 419.641 967.808 384.372 868.821C349.103 769.835 254.398 717.871 144.377 757.175C34.3565 796.479 24 1048.86 24 1048.86" stroke="#D0D5F6" stroke-width="2"/>
<path d="M223.065 1411C223.065 1411 313.97 1386.16 317.714 1319.79C321.458 1253.42 180.227 1306.63 236.766 1168.13C293.305 1029.63 344.404 1026.2 317.714 939.867C291.024 853.532 219.355 808.211 136.096 842.491C52.8374 876.771 45 1096.89 45 1096.89" stroke="#D0D5F6" stroke-width="2"/>
</svg>
